<?xml version="1.0" encoding="UTF-8"?>
<svg viewBox="0 0 188.56 247.4" xmlns="http://www.w3.org/2000/svg">
 <path d="m26.295 142.14l-12.143 22.143c-6.0875 20.891-19.482 41.052 1.4286 64.643 26.606 15.657 119.59 12.794 145.36 2.5 23.115-19.336 14.654-37.654 9.2857-56.071-3.8071-10.237-10.152-21.743-15.714-32.857l-128.21-0.3571h1e-5z" fill="#0f0" fill-rule="evenodd"/>
 <g stroke-width="5">
  <g fill-rule="evenodd">
   <g fill="none" stroke="#000">
    <path d="m48.081 16.786s10.133 7.3993 12.143 12.143c5.1837 12.235 3.3242 31.257 0.71429 44.286-8.3124 41.495-57.207 86.974-56.429 129.29 0.17282 9.391 5.632 23.196 13.571 28.214 18.295 11.564 72.857 8.9286 72.857 8.9286"/>
    <path d="m132.86 16.786s-10.133 7.3993-12.143 12.143c-5.1837 12.235-3.3242 31.257-0.71428 44.286 8.3124 41.495 57.207 86.974 56.429 129.29-0.17281 9.391-5.632 23.196-13.571 28.214-18.295 11.564-72.857 8.9286-72.857 8.9286"/>
   </g>
   <g stroke-linejoin="round">
    <g fill="#bbd7b8">
     <path d="m108.44 117.5c0 4.5367-3.6777 8.2144-8.2144 8.2144s-8.2144-3.6777-8.2144-8.2144 3.6777-8.2144 8.2144-8.2144 8.2144 3.6777 8.2144 8.2144z" opacity=".838"/>
     <path d="m95.224 85.357c0 5.7202-4.6371 10.357-10.357 10.357-5.7202 0-10.357-4.6371-10.357-10.357 0-5.7202 4.6371-10.357 10.357-10.357 5.7202 0 10.357 4.6371 10.357 10.357z" opacity=".838"/>
     <path d="m109.15 51.072c0 6.1147-4.9569 11.072-11.072 11.072-6.1147 0-11.072-4.9569-11.072-11.072 0-6.1147 4.9569-11.072 11.072-11.072 6.1147 0 11.072 4.9569 11.072 11.072z" opacity=".838"/>
     <path d="m98.652 15.358c0 8.4816-6.8757 15.357-15.357 15.357-8.4816 0-15.357-6.8757-15.357-15.357 0-8.4816 6.8757-15.357 15.357-15.357 8.4816 0 15.357 6.8757 15.357 15.357z" opacity=".838"/>
    </g>
    <g fill="#ff56aa">
     <path d="m109.44 117.5c0 4.5367-3.6777 8.2144-8.2144 8.2144s-8.2144-3.6777-8.2144-8.2144 3.6777-8.2144 8.2144-8.2144 8.2144 3.6777 8.2144 8.2144z" opacity=".838"/>
     <path d="m96.223 85.358c0 5.7202-4.6371 10.357-10.357 10.357-5.7202 0-10.357-4.6371-10.357-10.357 0-5.7202 4.6371-10.357 10.357-10.357 5.7202 0 10.357 4.6371 10.357 10.357z" opacity=".838"/>
     <path d="m110.15 51.071c0 6.1147-4.9569 11.072-11.072 11.072-6.1146 0-11.072-4.9569-11.072-11.072 0-6.1147 4.9569-11.072 11.072-11.072 6.1147 0 11.072 4.9569 11.072 11.072z" opacity=".838"/>
     <path d="m99.653 15.359c0 8.4816-6.8757 15.357-15.357 15.357-8.4816 0-15.357-6.8757-15.357-15.357 0-8.4816 6.8757-15.357 15.357-15.357 8.4816 0 15.357 6.8757 15.357 15.357z" opacity=".838"/>
    </g>
   </g>
  </g>
  <g stroke="#000">
   <line x1="25.78" x2="154.78" y1="141.7" y2="141.7" fill="none"/>
   <g stroke-dasharray="null" stroke-linecap="null" stroke-linejoin="null">
    <circle cx="100.78" cy="117.7" r="8.0623" fill="#0f0"/>
    <circle cx="83.78" cy="14.7" r="16.125" fill="#7fff00"/>
    <circle cx="99.78" cy="52.7" r="11.18" fill="#0f0"/>
    <circle cx="85.78" cy="86.7" r="11" fill="#7fff00"/>
   </g>
  </g>
 </g>
</svg>
